<?xml version="1.0" encoding="utf-8"?>
<!-- Generator: Adobe Illustrator 19.1.0, SVG Export Plug-In . SVG Version: 6.00 Build 0)  -->
<svg version="1.1" id="レイヤー_1" xmlns="http://www.w3.org/2000/svg" xmlns:xlink="http://www.w3.org/1999/xlink" x="0px"
	 y="0px" viewBox="-223 25 512 512" style="enable-background:new -223 25 512 512;" xml:space="preserve">
<style type="text/css">
	.st0{fill:#3C3C3C;}
</style>
<g>
	<path class="st0" d="M173.1,359.3V201.3C173.1,124.9,111.2,63,34.9,63l0,0c-76.4,0-138.2,61.9-138.3,138.3l0,0V280h42.2v-78.7
		c0-26.6,10.7-50.5,28.1-67.9l0,0c17.5-17.4,41.3-28.1,68-28.2l0,0c26.6,0,50.5,10.7,67.9,28.2l0,0c17.4,17.5,28.1,41.3,28.1,67.9
		l0,0v158.1H173.1L173.1,359.3z"/>
	<path class="st0" d="M198.9,236.2h-328c-1.5,0-2.7,1.3-2.7,2.8v254.7c0,1.6,1.2,2.8,2.7,2.8h328c1.5,0,2.7-1.3,2.7-2.8V239
		C201.5,237.5,200.3,236.2,198.9,236.2z M47.6,369.2l7.3,60.6h-40l7.3-60.6c-12.7-5.1-21.7-17.5-21.7-32c0-19,15.4-34.5,34.5-34.5
		c19,0,34.5,15.4,34.5,34.5C69.3,351.7,60.3,364.1,47.6,369.2z"/>
</g>
</svg>
